<mxfile host="app.diagrams.net" agent="Mozilla/5.0 (Windows NT 10.0; Win64; x64) AppleWebKit/537.36 (KHTML, like Gecko) Chrome/141.0.0.0 Safari/537.36" version="28.2.7">
  <diagram name="Page-1" id="ShCrVE427E_8MIGJ9xWh">
    <mxGraphModel dx="1973" dy="1744" grid="1" gridSize="10" guides="1" tooltips="1" connect="1" arrows="1" fold="1" page="1" pageScale="1" pageWidth="850" pageHeight="1100" math="0" shadow="0">
      <root>
        <mxCell id="0" />
        <mxCell id="1" parent="0" />
        <mxCell id="LQ3cpYP-hFQv1cbR6Jh2-3" style="edgeStyle=orthogonalEdgeStyle;rounded=0;orthogonalLoop=1;jettySize=auto;html=1;fillColor=#dae8fc;strokeColor=#6c8ebf;fontFamily=Times New Roman;" edge="1" parent="1" source="LQ3cpYP-hFQv1cbR6Jh2-1">
          <mxGeometry relative="1" as="geometry">
            <mxPoint x="390" y="20" as="targetPoint" />
          </mxGeometry>
        </mxCell>
        <mxCell id="LQ3cpYP-hFQv1cbR6Jh2-5" style="edgeStyle=orthogonalEdgeStyle;rounded=0;orthogonalLoop=1;jettySize=auto;html=1;fillColor=#dae8fc;strokeColor=#6c8ebf;fontFamily=Times New Roman;" edge="1" parent="1" source="LQ3cpYP-hFQv1cbR6Jh2-1">
          <mxGeometry relative="1" as="geometry">
            <mxPoint x="450" y="100" as="targetPoint" />
          </mxGeometry>
        </mxCell>
        <mxCell id="LQ3cpYP-hFQv1cbR6Jh2-6" style="edgeStyle=orthogonalEdgeStyle;rounded=0;orthogonalLoop=1;jettySize=auto;html=1;fillColor=#dae8fc;strokeColor=#6c8ebf;fontFamily=Times New Roman;" edge="1" parent="1" source="LQ3cpYP-hFQv1cbR6Jh2-1">
          <mxGeometry relative="1" as="geometry">
            <mxPoint x="320" y="100" as="targetPoint" />
          </mxGeometry>
        </mxCell>
        <mxCell id="LQ3cpYP-hFQv1cbR6Jh2-8" style="edgeStyle=orthogonalEdgeStyle;rounded=0;orthogonalLoop=1;jettySize=auto;html=1;fillColor=#dae8fc;strokeColor=#6c8ebf;fontFamily=Times New Roman;" edge="1" parent="1" source="LQ3cpYP-hFQv1cbR6Jh2-1">
          <mxGeometry relative="1" as="geometry">
            <mxPoint x="700" y="240" as="targetPoint" />
          </mxGeometry>
        </mxCell>
        <mxCell id="LQ3cpYP-hFQv1cbR6Jh2-10" style="edgeStyle=orthogonalEdgeStyle;rounded=0;orthogonalLoop=1;jettySize=auto;html=1;fillColor=#dae8fc;strokeColor=#6c8ebf;fontFamily=Times New Roman;" edge="1" parent="1" source="LQ3cpYP-hFQv1cbR6Jh2-1">
          <mxGeometry relative="1" as="geometry">
            <mxPoint x="610" y="310" as="targetPoint" />
          </mxGeometry>
        </mxCell>
        <mxCell id="LQ3cpYP-hFQv1cbR6Jh2-12" style="edgeStyle=orthogonalEdgeStyle;rounded=0;orthogonalLoop=1;jettySize=auto;html=1;fillColor=#dae8fc;strokeColor=#6c8ebf;fontFamily=Times New Roman;" edge="1" parent="1" source="LQ3cpYP-hFQv1cbR6Jh2-1">
          <mxGeometry relative="1" as="geometry">
            <mxPoint x="610" y="140" as="targetPoint" />
          </mxGeometry>
        </mxCell>
        <mxCell id="LQ3cpYP-hFQv1cbR6Jh2-16" style="edgeStyle=orthogonalEdgeStyle;rounded=0;orthogonalLoop=1;jettySize=auto;html=1;fillColor=#dae8fc;strokeColor=#6c8ebf;fontFamily=Times New Roman;" edge="1" parent="1" source="LQ3cpYP-hFQv1cbR6Jh2-1">
          <mxGeometry relative="1" as="geometry">
            <mxPoint x="10" y="240" as="targetPoint" />
          </mxGeometry>
        </mxCell>
        <mxCell id="LQ3cpYP-hFQv1cbR6Jh2-1" value="tasks" style="whiteSpace=wrap;html=1;align=center;fillColor=#dae8fc;strokeColor=#6c8ebf;fontFamily=Times New Roman;" vertex="1" parent="1">
          <mxGeometry x="320" y="220" width="140" height="40" as="geometry" />
        </mxCell>
        <mxCell id="LQ3cpYP-hFQv1cbR6Jh2-4" value="user_id" style="ellipse;whiteSpace=wrap;html=1;align=center;fillColor=#dae8fc;strokeColor=#6c8ebf;fontFamily=Times New Roman;" vertex="1" parent="1">
          <mxGeometry x="400" y="60" width="120" height="60" as="geometry" />
        </mxCell>
        <mxCell id="LQ3cpYP-hFQv1cbR6Jh2-7" value="title" style="ellipse;whiteSpace=wrap;html=1;align=center;fillColor=#dae8fc;strokeColor=#6c8ebf;fontFamily=Times New Roman;" vertex="1" parent="1">
          <mxGeometry x="260" y="60" width="120" height="60" as="geometry" />
        </mxCell>
        <mxCell id="LQ3cpYP-hFQv1cbR6Jh2-9" value="description" style="ellipse;whiteSpace=wrap;html=1;align=center;fillColor=#dae8fc;strokeColor=#6c8ebf;fontFamily=Times New Roman;" vertex="1" parent="1">
          <mxGeometry x="680" y="210" width="120" height="60" as="geometry" />
        </mxCell>
        <mxCell id="LQ3cpYP-hFQv1cbR6Jh2-11" value="is_completed" style="ellipse;whiteSpace=wrap;html=1;align=center;fillColor=#dae8fc;strokeColor=#6c8ebf;fontFamily=Times New Roman;" vertex="1" parent="1">
          <mxGeometry x="550" y="300" width="120" height="60" as="geometry" />
        </mxCell>
        <mxCell id="LQ3cpYP-hFQv1cbR6Jh2-14" style="edgeStyle=orthogonalEdgeStyle;rounded=0;orthogonalLoop=1;jettySize=auto;html=1;fillColor=#dae8fc;strokeColor=#6c8ebf;fontFamily=Times New Roman;" edge="1" parent="1" source="LQ3cpYP-hFQv1cbR6Jh2-13">
          <mxGeometry relative="1" as="geometry">
            <mxPoint x="780" y="120" as="targetPoint" />
          </mxGeometry>
        </mxCell>
        <mxCell id="LQ3cpYP-hFQv1cbR6Jh2-13" value="created_at" style="ellipse;whiteSpace=wrap;html=1;align=center;fillColor=#dae8fc;strokeColor=#6c8ebf;fontFamily=Times New Roman;" vertex="1" parent="1">
          <mxGeometry x="550" y="90" width="120" height="60" as="geometry" />
        </mxCell>
        <mxCell id="LQ3cpYP-hFQv1cbR6Jh2-15" value="updated_at" style="ellipse;whiteSpace=wrap;html=1;align=center;fillColor=#dae8fc;strokeColor=#6c8ebf;fontFamily=Times New Roman;" vertex="1" parent="1">
          <mxGeometry x="740" y="90" width="120" height="60" as="geometry" />
        </mxCell>
        <mxCell id="LQ3cpYP-hFQv1cbR6Jh2-18" style="edgeStyle=orthogonalEdgeStyle;rounded=0;orthogonalLoop=1;jettySize=auto;html=1;fillColor=#dae8fc;strokeColor=#6c8ebf;fontFamily=Times New Roman;" edge="1" parent="1" source="LQ3cpYP-hFQv1cbR6Jh2-17">
          <mxGeometry relative="1" as="geometry">
            <mxPoint x="-30" y="40" as="targetPoint" />
          </mxGeometry>
        </mxCell>
        <mxCell id="LQ3cpYP-hFQv1cbR6Jh2-21" style="edgeStyle=orthogonalEdgeStyle;rounded=0;orthogonalLoop=1;jettySize=auto;html=1;fillColor=#dae8fc;strokeColor=#6c8ebf;fontFamily=Times New Roman;" edge="1" parent="1" source="LQ3cpYP-hFQv1cbR6Jh2-17">
          <mxGeometry relative="1" as="geometry">
            <mxPoint x="-30" y="444" as="targetPoint" />
          </mxGeometry>
        </mxCell>
        <mxCell id="LQ3cpYP-hFQv1cbR6Jh2-23" style="edgeStyle=orthogonalEdgeStyle;rounded=0;orthogonalLoop=1;jettySize=auto;html=1;fillColor=#dae8fc;strokeColor=#6c8ebf;fontFamily=Times New Roman;" edge="1" parent="1" source="LQ3cpYP-hFQv1cbR6Jh2-17">
          <mxGeometry relative="1" as="geometry">
            <mxPoint x="-330" y="240" as="targetPoint" />
          </mxGeometry>
        </mxCell>
        <mxCell id="LQ3cpYP-hFQv1cbR6Jh2-17" value="Has Many" style="shape=rhombus;perimeter=rhombusPerimeter;whiteSpace=wrap;html=1;align=center;fillColor=#dae8fc;strokeColor=#6c8ebf;fontFamily=Times New Roman;" vertex="1" parent="1">
          <mxGeometry x="-90" y="190" width="120" height="100" as="geometry" />
        </mxCell>
        <mxCell id="LQ3cpYP-hFQv1cbR6Jh2-20" value="user_id" style="ellipse;whiteSpace=wrap;html=1;align=center;fillColor=#dae8fc;strokeColor=#6c8ebf;fontFamily=Times New Roman;" vertex="1" parent="1">
          <mxGeometry x="-90" y="-10" width="120" height="60" as="geometry" />
        </mxCell>
        <mxCell id="LQ3cpYP-hFQv1cbR6Jh2-25" style="edgeStyle=orthogonalEdgeStyle;rounded=0;orthogonalLoop=1;jettySize=auto;html=1;fillColor=#dae8fc;strokeColor=#6c8ebf;fontFamily=Times New Roman;" edge="1" parent="1" source="LQ3cpYP-hFQv1cbR6Jh2-24">
          <mxGeometry relative="1" as="geometry">
            <mxPoint x="-390" y="420" as="targetPoint" />
          </mxGeometry>
        </mxCell>
        <mxCell id="LQ3cpYP-hFQv1cbR6Jh2-28" style="edgeStyle=orthogonalEdgeStyle;rounded=0;orthogonalLoop=1;jettySize=auto;html=1;fillColor=#dae8fc;strokeColor=#6c8ebf;fontFamily=Times New Roman;" edge="1" parent="1" source="LQ3cpYP-hFQv1cbR6Jh2-24">
          <mxGeometry relative="1" as="geometry">
            <mxPoint x="-330" y="350" as="targetPoint" />
          </mxGeometry>
        </mxCell>
        <mxCell id="LQ3cpYP-hFQv1cbR6Jh2-29" style="edgeStyle=orthogonalEdgeStyle;rounded=0;orthogonalLoop=1;jettySize=auto;html=1;fillColor=#dae8fc;strokeColor=#6c8ebf;fontFamily=Times New Roman;" edge="1" parent="1" source="LQ3cpYP-hFQv1cbR6Jh2-24">
          <mxGeometry relative="1" as="geometry">
            <mxPoint x="-450" y="350" as="targetPoint" />
          </mxGeometry>
        </mxCell>
        <mxCell id="LQ3cpYP-hFQv1cbR6Jh2-32" style="edgeStyle=orthogonalEdgeStyle;rounded=0;orthogonalLoop=1;jettySize=auto;html=1;fillColor=#dae8fc;strokeColor=#6c8ebf;fontFamily=Times New Roman;" edge="1" parent="1" source="LQ3cpYP-hFQv1cbR6Jh2-24">
          <mxGeometry relative="1" as="geometry">
            <mxPoint x="-390" y="130" as="targetPoint" />
          </mxGeometry>
        </mxCell>
        <mxCell id="LQ3cpYP-hFQv1cbR6Jh2-24" value="users" style="whiteSpace=wrap;html=1;align=center;fillColor=#dae8fc;strokeColor=#6c8ebf;fontFamily=Times New Roman;" vertex="1" parent="1">
          <mxGeometry x="-460" y="220" width="140" height="40" as="geometry" />
        </mxCell>
        <mxCell id="LQ3cpYP-hFQv1cbR6Jh2-27" value="password" style="ellipse;whiteSpace=wrap;html=1;align=center;fillColor=#dae8fc;strokeColor=#6c8ebf;fontFamily=Times New Roman;" vertex="1" parent="1">
          <mxGeometry x="-380" y="330" width="120" height="60" as="geometry" />
        </mxCell>
        <mxCell id="LQ3cpYP-hFQv1cbR6Jh2-30" value="email" style="ellipse;whiteSpace=wrap;html=1;align=center;fillColor=#dae8fc;strokeColor=#6c8ebf;fontFamily=Times New Roman;" vertex="1" parent="1">
          <mxGeometry x="-520" y="330" width="120" height="60" as="geometry" />
        </mxCell>
        <mxCell id="LQ3cpYP-hFQv1cbR6Jh2-33" style="edgeStyle=orthogonalEdgeStyle;rounded=0;orthogonalLoop=1;jettySize=auto;html=1;fillColor=#dae8fc;strokeColor=#6c8ebf;fontFamily=Times New Roman;" edge="1" parent="1" source="LQ3cpYP-hFQv1cbR6Jh2-31">
          <mxGeometry relative="1" as="geometry">
            <mxPoint x="-390" y="-30" as="targetPoint" />
          </mxGeometry>
        </mxCell>
        <mxCell id="LQ3cpYP-hFQv1cbR6Jh2-35" style="edgeStyle=orthogonalEdgeStyle;rounded=0;orthogonalLoop=1;jettySize=auto;html=1;fillColor=#dae8fc;strokeColor=#6c8ebf;fontFamily=Times New Roman;" edge="1" parent="1" source="LQ3cpYP-hFQv1cbR6Jh2-31">
          <mxGeometry relative="1" as="geometry">
            <mxPoint x="-260" y="60" as="targetPoint" />
          </mxGeometry>
        </mxCell>
        <mxCell id="LQ3cpYP-hFQv1cbR6Jh2-31" value="name" style="ellipse;shape=doubleEllipse;margin=3;whiteSpace=wrap;html=1;align=center;fillColor=#dae8fc;strokeColor=#6c8ebf;fontFamily=Times New Roman;" vertex="1" parent="1">
          <mxGeometry x="-455" y="80" width="130" height="60" as="geometry" />
        </mxCell>
        <mxCell id="LQ3cpYP-hFQv1cbR6Jh2-34" value="first_name" style="ellipse;whiteSpace=wrap;html=1;align=center;fillColor=#dae8fc;strokeColor=#6c8ebf;fontFamily=Times New Roman;" vertex="1" parent="1">
          <mxGeometry x="-450" y="-80" width="120" height="60" as="geometry" />
        </mxCell>
        <mxCell id="LQ3cpYP-hFQv1cbR6Jh2-36" value="last_name" style="ellipse;whiteSpace=wrap;html=1;align=center;fillColor=#dae8fc;strokeColor=#6c8ebf;fontFamily=Times New Roman;" vertex="1" parent="1">
          <mxGeometry x="-320" y="10" width="120" height="60" as="geometry" />
        </mxCell>
        <mxCell id="LQ3cpYP-hFQv1cbR6Jh2-37" value="id" style="ellipse;whiteSpace=wrap;html=1;align=center;fontStyle=4;fillColor=#dae8fc;strokeColor=#6c8ebf;fontFamily=Times New Roman;" vertex="1" parent="1">
          <mxGeometry x="-445" y="400" width="110" height="70" as="geometry" />
        </mxCell>
        <mxCell id="LQ3cpYP-hFQv1cbR6Jh2-38" value="id" style="ellipse;whiteSpace=wrap;html=1;align=center;fontStyle=4;fillColor=#dae8fc;strokeColor=#6c8ebf;fontFamily=Times New Roman;" vertex="1" parent="1">
          <mxGeometry x="-85" y="420" width="110" height="70" as="geometry" />
        </mxCell>
        <mxCell id="LQ3cpYP-hFQv1cbR6Jh2-39" value="id" style="ellipse;whiteSpace=wrap;html=1;align=center;fontStyle=4;fillColor=#dae8fc;strokeColor=#6c8ebf;fontFamily=Times New Roman;" vertex="1" parent="1">
          <mxGeometry x="335" y="-30" width="110" height="70" as="geometry" />
        </mxCell>
        <mxCell id="LQ3cpYP-hFQv1cbR6Jh2-40" value="1" style="text;html=1;whiteSpace=wrap;align=center;verticalAlign=middle;rounded=0;fontFamily=Times New Roman;" vertex="1" parent="1">
          <mxGeometry x="-333" y="215" width="60" height="30" as="geometry" />
        </mxCell>
        <mxCell id="LQ3cpYP-hFQv1cbR6Jh2-41" value="M" style="text;html=1;whiteSpace=wrap;align=center;verticalAlign=middle;rounded=0;fontFamily=Times New Roman;" vertex="1" parent="1">
          <mxGeometry x="276" y="217" width="60" height="30" as="geometry" />
        </mxCell>
      </root>
    </mxGraphModel>
  </diagram>
</mxfile>
